<?xml version="1.0" encoding="UTF-8" standalone="no"?>
<!-- Created with Inkscape (http://www.inkscape.org/) -->

<svg
   xmlns:dc="http://purl.org/dc/elements/1.1/"
   xmlns:cc="http://creativecommons.org/ns#"
   xmlns:rdf="http://www.w3.org/1999/02/22-rdf-syntax-ns#"
   xmlns:svg="http://www.w3.org/2000/svg"
   xmlns="http://www.w3.org/2000/svg"
   xmlns:sodipodi="http://sodipodi.sourceforge.net/DTD/sodipodi-0.dtd"
   xmlns:inkscape="http://www.inkscape.org/namespaces/inkscape"
   width="390"
   height="340"
   id="svg2"
   sodipodi:version="0.32"
   inkscape:version="0.48.1 r9760"
   sodipodi:docname="Unitcube.svg"
   version="1.0">
  <defs
     id="defs4">
    <marker
       inkscape:stockid="Arrow1Mend"
       orient="auto"
       refY="0"
       refX="0"
       id="Arrow1Mend"
       style="overflow:visible">
      <path
         id="path3993"
         d="M 0,0 5,-5 -12.5,0 5,5 0,0 z"
         style="fill-rule:evenodd;stroke:#000000;stroke-width:1pt;marker-start:none"
         transform="matrix(-0.4,0,0,-0.4,-4,0)"
         inkscape:connector-curvature="0" />
    </marker>
    <marker
       inkscape:stockid="Arrow1Mstart"
       orient="auto"
       refY="0"
       refX="0"
       id="Arrow1Mstart"
       style="overflow:visible">
      <path
         id="path3990"
         d="M 0,0 5,-5 -12.5,0 5,5 0,0 z"
         style="fill-rule:evenodd;stroke:#000000;stroke-width:1pt;marker-start:none"
         transform="matrix(0.4,0,0,0.4,4,0)"
         inkscape:connector-curvature="0" />
    </marker>
    <marker
       inkscape:stockid="Arrow1Sstart"
       orient="auto"
       refY="0"
       refX="0"
       id="Arrow1Sstart"
       style="overflow:visible">
      <path
         id="path2347"
         d="M 0,0 5,-5 -12.5,0 5,5 0,0 z"
         style="fill-rule:evenodd;stroke:#000000;stroke-width:1pt;marker-start:none"
         transform="scale(0.2,0.2)"
         inkscape:connector-curvature="0" />
    </marker>
    <marker
       inkscape:stockid="Arrow1Send"
       orient="auto"
       refY="0"
       refX="0"
       id="Arrow1Send"
       style="overflow:visible">
      <path
         id="path2344"
         d="M 0,0 5,-5 -12.5,0 5,5 0,0 z"
         style="fill-rule:evenodd;stroke:#000000;stroke-width:1pt;marker-start:none"
         transform="scale(-0.2,-0.2)"
         inkscape:connector-curvature="0" />
    </marker>
    <marker
       inkscape:stockid="Arrow1Mstart"
       orient="auto"
       refY="0"
       refX="0"
       id="Arrow1Mstart-6"
       style="overflow:visible">
      <path
         inkscape:connector-curvature="0"
         id="path3990-6"
         d="M 0,0 5,-5 -12.5,0 5,5 0,0 z"
         style="fill-rule:evenodd;stroke:#000000;stroke-width:1pt;marker-start:none"
         transform="matrix(0.4,0,0,0.4,4,0)" />
    </marker>
    <marker
       inkscape:stockid="Arrow1Mend"
       orient="auto"
       refY="0"
       refX="0"
       id="Arrow1Mend-7"
       style="overflow:visible">
      <path
         inkscape:connector-curvature="0"
         id="path3993-2"
         d="M 0,0 5,-5 -12.5,0 5,5 0,0 z"
         style="fill-rule:evenodd;stroke:#000000;stroke-width:1pt;marker-start:none"
         transform="matrix(-0.4,0,0,-0.4,-4,0)" />
    </marker>
    <marker
       inkscape:stockid="Arrow1Mstart"
       orient="auto"
       refY="0"
       refX="0"
       id="Arrow1Mstart-4"
       style="overflow:visible">
      <path
         inkscape:connector-curvature="0"
         id="path3990-1"
         d="M 0,0 5,-5 -12.5,0 5,5 0,0 z"
         style="fill-rule:evenodd;stroke:#000000;stroke-width:1pt;marker-start:none"
         transform="matrix(0.4,0,0,0.4,4,0)" />
    </marker>
    <marker
       inkscape:stockid="Arrow1Mend"
       orient="auto"
       refY="0"
       refX="0"
       id="Arrow1Mend-0"
       style="overflow:visible">
      <path
         inkscape:connector-curvature="0"
         id="path3993-0"
         d="M 0,0 5,-5 -12.5,0 5,5 0,0 z"
         style="fill-rule:evenodd;stroke:#000000;stroke-width:1pt;marker-start:none"
         transform="matrix(-0.4,0,0,-0.4,-4,0)" />
    </marker>
  </defs>
  <sodipodi:namedview
     id="base"
     pagecolor="#ffffff"
     bordercolor="#666666"
     borderopacity="1.0"
     inkscape:pageopacity="0.0"
     inkscape:pageshadow="2"
     inkscape:zoom="1.326239"
     inkscape:cx="219.74386"
     inkscape:cy="182.56719"
     inkscape:document-units="px"
     inkscape:current-layer="layer1"
     gridtolerance="10000"
     showgrid="true"
     inkscape:grid-points="false"
     inkscape:grid-bbox="true"
     inkscape:window-width="1280"
     inkscape:window-height="755"
     inkscape:window-x="-4"
     inkscape:window-y="26"
     objecttolerance="10000"
     guidetolerance="10000"
     inkscape:window-maximized="1">
    <inkscape:grid
       id="GridFromPre046Settings"
       type="xygrid"
       originx="0px"
       originy="0px"
       spacingx="10px"
       spacingy="10px"
       color="#0000ff"
       empcolor="#0000ff"
       opacity="0.2"
       empopacity="0.4"
       empspacing="5"
       visible="true"
       enabled="true"
       snapvisiblegridlinesonly="true" />
  </sodipodi:namedview>
  <metadata
     id="metadata7">
    <rdf:RDF>
      <cc:Work
         rdf:about="">
        <dc:format>image/svg+xml</dc:format>
        <dc:type
           rdf:resource="http://purl.org/dc/dcmitype/StillImage" />
      </cc:Work>
    </rdf:RDF>
  </metadata>
  <g
     inkscape:label="Layer 1"
     inkscape:groupmode="layer"
     id="layer1"
     transform="translate(0,-60)">
    <g
       id="g5946">
      <path
         style="font-size:medium;font-style:normal;font-variant:normal;font-weight:normal;font-stretch:normal;text-indent:0;text-align:start;text-decoration:none;line-height:normal;letter-spacing:normal;word-spacing:normal;text-transform:none;direction:ltr;block-progression:tb;writing-mode:lr-tb;text-anchor:start;baseline-shift:baseline;color:#000000;fill:#000000;fill-opacity:1;stroke:none;stroke-width:1px;marker:none;visibility:visible;display:inline;overflow:visible;enable-background:accumulate;font-family:Sans;-inkscape-font-specification:Sans"
         d="m 369.78125,179.5625 -350,175 0.4375,0.875 350,-175 -0.4375,-0.875 z"
         id="path5843"
         inkscape:connector-curvature="0" />
      <path
         inkscape:connector-curvature="0"
         style="fill-rule:evenodd;stroke:#000000;stroke-width:0.4pt;marker-start:none"
         d="m 23.577709,353.21115 0.894427,-2.68329 -5.366563,4.91935 7.155417,-1.34164 -2.683281,-0.89442 z"
         id="path5952" />
      <path
         inkscape:connector-curvature="0"
         style="fill-rule:evenodd;stroke:#000000;stroke-width:0.4pt;marker-start:none"
         d="m 366.42229,181.78885 -0.89443,2.68329 5.36657,-4.91935 -7.15542,1.34164 2.68328,0.89442 z"
         id="path5954" />
    </g>
    <g
       id="g5956">
      <path
         style="font-size:medium;font-style:normal;font-variant:normal;font-weight:normal;font-stretch:normal;text-indent:0;text-align:start;text-decoration:none;line-height:normal;letter-spacing:normal;word-spacing:normal;text-transform:none;direction:ltr;block-progression:tb;writing-mode:lr-tb;text-anchor:start;baseline-shift:baseline;color:#000000;fill:#000000;fill-opacity:1;stroke:none;stroke-width:1px;marker:none;visibility:visible;display:inline;overflow:visible;enable-background:accumulate;font-family:Sans;-inkscape-font-specification:Sans"
         d="m 20,279.5 0,1 350,0 0,-1 -350,0 z"
         id="path5434"
         inkscape:connector-curvature="0" />
      <path
         inkscape:connector-curvature="0"
         style="fill-rule:evenodd;stroke:#000000;stroke-width:0.4pt;marker-start:none"
         d="m 24,280 2,-2 -7,2 7,2 -2,-2 z"
         id="path5962" />
      <path
         inkscape:connector-curvature="0"
         style="fill-rule:evenodd;stroke:#000000;stroke-width:0.4pt;marker-start:none"
         d="m 366,280 -2,2 7,-2 -7,-2 2,2 z"
         id="path5964" />
    </g>
    <g
       id="g5966">
      <path
         style="font-size:medium;font-style:normal;font-variant:normal;font-weight:normal;font-stretch:normal;text-indent:0;text-align:start;text-decoration:none;line-height:normal;letter-spacing:normal;word-spacing:normal;text-transform:none;direction:ltr;block-progression:tb;writing-mode:lr-tb;text-anchor:start;baseline-shift:baseline;color:#000000;fill:#000000;fill-opacity:1;stroke:none;stroke-width:1px;marker:none;visibility:visible;display:inline;overflow:visible;enable-background:accumulate;font-family:Sans;-inkscape-font-specification:Sans"
         d="m 169.5,80 0,300 1,0 0,-300 -1,0 z"
         id="path5812"
         inkscape:connector-curvature="0" />
      <path
         inkscape:connector-curvature="0"
         style="fill-rule:evenodd;stroke:#000000;stroke-width:0.4pt;marker-start:none"
         d="m 170,84 2,2 -2,-7 -2,7 2,-2 z"
         id="path5972" />
      <path
         inkscape:connector-curvature="0"
         style="fill-rule:evenodd;stroke:#000000;stroke-width:0.4pt;marker-start:none"
         d="m 170,376 -2,-2 2,7 2,-7 -2,2 z"
         id="path5974" />
    </g>
    <g
       id="g5408"
       transform="translate(220,130)">
      <path
         style="color:#000000;fill:#f53409;fill-opacity:0.37267079;fill-rule:nonzero;stroke:#000000;stroke-width:2;stroke-linecap:round;stroke-linejoin:round;stroke-miterlimit:4.00400019;stroke-dashoffset:0;stroke-opacity:1;marker:none;visibility:visible;display:inline;overflow:visible;enable-background:accumulate"
         d="m -149.46683,49.200249 150.00000261,0 0,150.000001 -150.00000261,0 z"
         id="rect5194" />
      <path
         style="color:#000000;fill:#f53409;fill-opacity:0.37267079;fill-rule:nonzero;stroke:#000000;stroke-width:2;stroke-linecap:round;stroke-linejoin:round;stroke-miterlimit:4.00400019;stroke-dashoffset:0;stroke-opacity:1;marker:none;visibility:visible;display:inline;overflow:visible;enable-background:accumulate"
         d="m -50,0 150,0 0,150 -150,0 z"
         id="rect5255" />
      <path
         sodipodi:nodetypes="ccccc"
         inkscape:connector-curvature="0"
         id="path5289"
         d="M -149.46683,49.20025 -49.466831,2.233139e-8 -49.466831,150 -149.46683,199.20025 z"
         style="color:#000000;fill:#f5f18b;fill-opacity:0.59006216;fill-rule:nonzero;stroke:#000000;stroke-width:2;stroke-linecap:round;stroke-linejoin:round;stroke-miterlimit:4.00400019;stroke-opacity:1;stroke-dasharray:none;stroke-dashoffset:0;marker:none;visibility:visible;display:inline;overflow:visible;enable-background:accumulate" />
      <path
         style="color:#000000;fill:#f5f18b;fill-opacity:0.59006216;fill-rule:nonzero;stroke:#000000;stroke-width:2;stroke-linecap:round;stroke-linejoin:round;stroke-miterlimit:4.00400019;stroke-opacity:1;stroke-dasharray:none;stroke-dashoffset:0;marker:none;visibility:visible;display:inline;overflow:visible;enable-background:accumulate"
         d="M 0.53316879,49.20025 100.53317,2.233139e-8 100.53317,150 0.53316879,199.20025 z"
         id="path5310"
         inkscape:connector-curvature="0"
         sodipodi:nodetypes="ccccc" />
      <path
         inkscape:connector-curvature="0"
         id="path5330"
         d="M -148.75358,200 0,200 100,150 -50,150 z"
         style="color:#000000;fill:#0ba8ff;fill-opacity:0.29813663;fill-rule:nonzero;stroke:#000000;stroke-width:2;stroke-linecap:round;stroke-linejoin:round;stroke-miterlimit:4.00400019;stroke-opacity:1;stroke-dasharray:none;stroke-dashoffset:0;marker:none;visibility:visible;display:inline;overflow:visible;enable-background:accumulate" />
      <path
         style="color:#000000;fill:#0ba8ff;fill-opacity:0.29813663;fill-rule:nonzero;stroke:#000000;stroke-width:2;stroke-linecap:round;stroke-linejoin:round;stroke-miterlimit:4.00400019;stroke-opacity:1;stroke-dasharray:none;stroke-dashoffset:0;marker:none;visibility:visible;display:inline;overflow:visible;enable-background:accumulate"
         d="m -148.22041,49.20025 148.75357879,0 100.00000121,-50.00000039 -150.000001,0 z"
         id="path5338"
         inkscape:connector-curvature="0" />
    </g>
    <g
       style="font-size:24px;font-style:normal;font-variant:normal;font-weight:bold;font-stretch:normal;text-align:start;line-height:125%;letter-spacing:0px;word-spacing:0px;writing-mode:lr-tb;text-anchor:start;fill:#000000;fill-opacity:1;stroke:none;font-family:Gentium Basic;-inkscape-font-specification:Gentium Basic Bold"
       id="text5874">
      <path
         d="m 156.54933,126.88721 0,-0.97266 c 0.60937,-0.0703 1.11719,-0.14844 1.52344,-0.23437 0.40625,-0.0937 0.73046,-0.1875 0.97266,-0.28125 0.24218,-0.0937 0.41405,-0.1836 0.51562,-0.26954 0.10156,-0.0937 0.15234,-0.18359 0.15234,-0.26953 l 0,-8.63672 c 0,-0.31248 -0.0117,-0.55467 -0.0352,-0.72656 -0.0234,-0.17186 -0.082,-0.31249 -0.17578,-0.42187 -0.0469,-0.0469 -0.13282,-0.0859 -0.25782,-0.11719 -0.11719,-0.0312 -0.29297,-0.043 -0.52734,-0.0352 -0.23438,0.008 -0.53125,0.0352 -0.89062,0.082 -0.35157,0.0469 -0.78516,0.12502 -1.30079,0.23438 l -0.33984,-0.94922 c 0.21875,-0.0469 0.48828,-0.11717 0.80859,-0.21094 0.32813,-0.0937 0.67578,-0.1992 1.04297,-0.3164 0.36719,-0.11718 0.74609,-0.24218 1.13672,-0.375 0.39062,-0.14061 0.76172,-0.27733 1.11328,-0.41016 0.35937,-0.1328 0.6875,-0.2578 0.98438,-0.375 0.30468,-0.11717 0.55077,-0.21873 0.73828,-0.30469 l 0.51562,0.49219 0,12.07031 c 0,0.0781 0.043,0.16407 0.12891,0.25782 0.0859,0.0859 0.23827,0.17578 0.45703,0.26953 0.21874,0.0937 0.51562,0.1875 0.89063,0.28125 0.3828,0.0937 0.86717,0.17578 1.45312,0.24609 l 0,0.97266 -8.90625,0"
         style=""
         id="path5942" />
    </g>
    <g
       style="font-size:24px;font-style:normal;font-variant:normal;font-weight:bold;font-stretch:normal;text-align:start;line-height:125%;letter-spacing:0px;word-spacing:0px;writing-mode:lr-tb;text-anchor:start;fill:#000000;fill-opacity:1;stroke:none;font-family:Gentium Basic;-inkscape-font-specification:Gentium Basic Bold"
       id="text5878">
      <path
         d="m 321.81641,300 0,-0.97266 c 0.60937,-0.0703 1.11718,-0.14843 1.52343,-0.23437 0.40625,-0.0937 0.73047,-0.1875 0.97266,-0.28125 0.24218,-0.0937 0.41406,-0.18359 0.51562,-0.26953 0.10156,-0.0937 0.15234,-0.18359 0.15235,-0.26953 l 0,-8.63672 c -1e-5,-0.31249 -0.0117,-0.55468 -0.0352,-0.72657 -0.0234,-0.17186 -0.082,-0.31248 -0.17578,-0.42187 -0.0469,-0.0469 -0.13282,-0.0859 -0.25781,-0.11719 -0.11719,-0.0312 -0.29297,-0.043 -0.52735,-0.0351 -0.23437,0.008 -0.53125,0.0352 -0.89062,0.082 -0.35157,0.0469 -0.78516,0.12501 -1.30078,0.23437 l -0.33985,-0.94922 c 0.21875,-0.0469 0.48828,-0.11717 0.8086,-0.21093 0.32812,-0.0937 0.67578,-0.19921 1.04297,-0.31641 0.36718,-0.11717 0.74609,-0.24217 1.13672,-0.375 0.39062,-0.14061 0.76171,-0.27733 1.11328,-0.41016 0.35937,-0.13279 0.68749,-0.25779 0.98437,-0.375 0.30468,-0.11717 0.55078,-0.21873 0.73828,-0.30468 l 0.51563,0.49218 0,12.07032 c -1e-5,0.0781 0.043,0.16406 0.1289,0.25781 0.0859,0.0859 0.23828,0.17578 0.45704,0.26953 0.21874,0.0937 0.51561,0.1875 0.89062,0.28125 0.3828,0.0937 0.86718,0.17578 1.45313,0.24609 l 0,0.97266 -8.90625,0"
         style=""
         id="path5939" />
    </g>
    <g
       style="font-size:24px;font-style:normal;font-variant:normal;font-weight:bold;font-stretch:normal;text-align:start;line-height:125%;letter-spacing:0px;word-spacing:0px;writing-mode:lr-tb;text-anchor:start;fill:#000000;fill-opacity:1;stroke:none;font-family:Gentium Basic;-inkscape-font-specification:Gentium Basic Bold"
       id="text5882">
      <path
         d="m 71.816406,350 0,-0.97266 c 0.609373,-0.0703 1.117185,-0.14843 1.523438,-0.23437 0.406246,-0.0937 0.730464,-0.1875 0.972656,-0.28125 0.242183,-0.0937 0.414058,-0.18359 0.515625,-0.26953 0.101558,-0.0937 0.152339,-0.18359 0.152344,-0.26953 l 0,-8.63672 c -5e-6,-0.31249 -0.01172,-0.55468 -0.03516,-0.72657 -0.02344,-0.17186 -0.08204,-0.31248 -0.175781,-0.42187 -0.04688,-0.0469 -0.132817,-0.0859 -0.257812,-0.11719 -0.117192,-0.0312 -0.292973,-0.043 -0.527344,-0.0351 -0.234379,0.008 -0.531253,0.0352 -0.890625,0.082 -0.351565,0.0469 -0.785159,0.12501 -1.300781,0.23437 l -0.339844,-0.94922 c 0.218748,-0.0469 0.488279,-0.11717 0.808594,-0.21093 0.328122,-0.0937 0.675778,-0.19921 1.042968,-0.31641 0.367184,-0.11717 0.74609,-0.24217 1.136719,-0.375 0.39062,-0.14061 0.761714,-0.27733 1.113281,-0.41016 0.35937,-0.13279 0.687494,-0.25779 0.984375,-0.375 0.304681,-0.11717 0.550775,-0.21873 0.738282,-0.30468 l 0.515625,0.49218 0,12.07032 c -8e-6,0.0781 0.04296,0.16406 0.128906,0.25781 0.08593,0.0859 0.238273,0.17578 0.457031,0.26953 0.218742,0.0937 0.515616,0.1875 0.890625,0.28125 0.382803,0.0937 0.867178,0.17578 1.453125,0.24609 l 0,0.97266 -8.90625,0"
         style=""
         id="path5936" />
    </g>
  </g>
</svg>
